<svg xmlns="http://www.w3.org/2000/svg" viewBox="0 0 909.81 150.09"><defs><style>.cls-1{fill:none;}</style></defs><title>Asset 1</title><g id="Layer_2" data-name="Layer 2"><g id="Layer_1-2" data-name="Layer 1"><polygon class="cls-1" points="78.91 0 103.29 49.41 157.81 57.33 118.36 95.79 127.67 150.09 78.91 124.45 30.14 150.09 39.45 95.79 0 57.33 54.52 49.41 78.91 0"/><polygon class="cls-1" points="266.91 0 291.29 49.41 345.81 57.33 306.36 95.79 315.67 150.09 266.91 124.45 218.14 150.09 227.45 95.79 188 57.33 242.52 49.41 266.91 0"/><polygon class="cls-1" points="454.91 0 479.29 49.41 533.81 57.33 494.36 95.79 503.67 150.09 454.91 124.45 406.14 150.09 415.45 95.79 376 57.33 430.52 49.41 454.91 0"/><polygon class="cls-1" points="642.91 0 667.29 49.41 721.81 57.33 682.36 95.79 691.67 150.09 642.91 124.45 594.14 150.09 603.45 95.79 564 57.33 618.52 49.41 642.91 0"/><polygon class="cls-1" points="830.91 0 855.29 49.41 909.81 57.33 870.36 95.79 879.67 150.09 830.91 124.45 782.14 150.09 791.45 95.79 752 57.33 806.52 49.41 830.91 0"/></g></g></svg>