<svg xmlns="http://www.w3.org/2000/svg" viewBox="0 0 910 151"><defs><style>.cls-1{fill:#fff;}</style></defs><title>stars</title><g id="Layer_2" data-name="Layer 2"><g id="Layer_1-2" data-name="Layer 1"><path class="cls-1" d="M0,0V151H910V0ZM127.77,150.54,79,124.9,30.23,150.54l9.31-54.3L.1,57.78l54.51-7.92L79,.46l24.38,49.4,54.52,7.92L118.46,96.24Zm188,0L267,124.9l-48.78,25.64,9.31-54.3L188.1,57.78l54.51-7.92L267,.46l24.38,49.4,54.52,7.92L306.46,96.24Zm188,0L455,124.9l-48.77,25.64,9.31-54.3L376.1,57.78l54.51-7.92L455,.46l24.38,49.4,54.52,7.92L494.46,96.24Zm188,0L643,124.9l-48.77,25.64,9.31-54.3L564.09,57.78l54.52-7.92L643,.46l24.38,49.4,54.52,7.92L682.46,96.24Zm188,0L831,124.9l-48.77,25.64,9.31-54.3L752.09,57.78l54.52-7.92L831,.46l24.38,49.4,54.52,7.92L870.46,96.24Z"/></g></g></svg>